PathFileType	4	(X/Y/Z)	Patient4_TMGait_0pt4_03_right_10.trc.trc
DataRate	CameraRate	NumFrames	NumMarkers	Units	OrigDataRate	OrigDataStartFrame	OrigNumFrames
75.268817204301	75.268817204301	4	33	mm	75.268817204301	106	       141
Frame#	Time	Sacral			L.Shoulder			Chest			R.Shoulder			Neck			R.ASIS			L.ASIS			R.Thigh.Superior			R.Thigh.Lateral			R.Thigh.Inferior			R.Patella			L.Thigh.Superior			L.Thigh.Lateral			L.Thigh.Inferior			L.Patella			L.Shank.Superior			L.Shank.Lateral			L.Shank.Inferior			R.Shank.Superior			R.Shank.Lateral			R.Shank.Inferior			R.Heel			R.Midfoot.Superior			R.Midfoot.Lateral			R.Toe			L.Heel			L.Midfoot.Lateral			L.Midfoot.Superior			L.Toe			L.Elbow			L.Wrist			R.Elbow			R.Wrist			
		X1	Y1	Z1	X2	Y2	Z2	X3	Y3	Z3	X4	Y4	Z4	X5	Y5	Z5	X6	Y6	Z6	X7	Y7	Z7	X8	Y8	Z8	X9	Y9	Z9	X10	Y10	Z10	X11	Y11	Z11	X12	Y12	Z12	X13	Y13	Z13	X14	Y14	Z14	X15	Y15	Z15	X16	Y16	Z16	X17	Y17	Z17	X18	Y18	Z18	X19	Y19	Z19	X20	Y20	Z20	X21	Y21	Z21	X22	Y22	Z22	X23	Y23	Z23	X24	Y24	Z24	X25	Y25	Z25	X26	Y26	Z26	X27	Y27	Z27	X28	Y28	Z28	X29	Y29	Z29	X30	Y30	Z30	X31	Y31	Z31	X32	Y32	Z32	X33	Y33	Z33	

106	13.475000000000	809.291114946352	1008.387681547895	422.770565356805	990.125818075625	1437.930322984768	228.436346403508	1089.538424081573	1375.506746576200	393.879093394370	999.292286684056	1447.511546596540	565.133035012898	962.251116122085	1500.194437227902	384.073150614890	1039.422274170499	952.354899496772	540.373292780412	1025.818439786945	966.750001989133	267.367082355053	1122.197105600183	778.972884020531	513.241281751151	1084.501900013474	661.007174051294	595.007526366148	1170.721433162750	618.496069226304	514.647740258581	1193.818907281061	513.167590129231	542.118139023403	1068.914756585197	749.353201566393	296.977879315649	975.853212392004	635.927252881939	237.878966310006	1057.449582641865	556.180506279918	300.666090913271	1054.827998050529	487.208423472344	311.659204116854	1026.477085520038	415.797625905731	304.140241878410	934.396768828769	303.790394651646	252.619991644414	978.719925545860	191.263723642181	325.618999187206	1129.526919061666	431.787602628505	556.153799436350	1019.038101598854	374.398438412513	622.447039920194	1024.288322754245	261.659614910037	579.839649915011	838.849864324572	163.138318146505	562.254968568597	1015.995432020574	137.684845663566	600.956630763458	909.164292260842	117.284750501508	635.557788962837	1099.727351397534	38.171227623190	626.961446415592	847.449906771812	38.598063937024	368.937048289223	920.727279056124	35.043140845063	287.451470713332	1004.278939625851	95.615986679256	314.710226504428	1133.252472661897	41.977189263809	284.888224206974	1042.521444619799	1109.972730575620	69.064395789950	1268.317474345071	974.587186167803	73.802549626662	931.401301319219	1106.370504110736	685.858591371776	975.433247352257	847.732171832000	694.029967653226	
107	13.488285714286	807.941570229926	1009.030120105414	421.721290304912	991.443709158244	1438.320474047230	228.800136902713	1089.242521823539	1375.552627302655	395.047367178953	997.729445462569	1447.810351586109	565.492214843751	962.256564802842	1500.484742436707	384.387340934288	1037.240745845997	952.543889352935	540.948961484009	1025.482981454641	966.983872108331	267.777326996664	1119.850149471594	779.342792127756	514.010493572927	1082.161336352236	661.533387980734	596.021202537147	1168.001793541329	618.761109207099	515.583318055048	1192.156328233497	515.321592311876	543.124783236916	1066.132662176762	748.729040218510	297.803883354413	972.293336416746	636.112710455353	237.737213570455	1052.727531213766	555.665691268621	300.876130346311	1049.360523883455	486.917672068965	311.775472667212	1021.146023233684	415.751475221342	304.013638367270	929.028835314821	303.777634670606	252.376002648046	973.272589490988	191.233344103840	325.503241599159	1131.482342149719	432.477461726536	557.525050974213	1024.549950359850	369.643830103476	624.174992246876	1035.510020105354	257.296491962725	581.571635675932	855.582985378799	148.862278720421	564.191186805465	1033.780158925315	133.488290106895	603.131844609135	928.288679967494	107.670816219062	637.978326867944	1122.767144037855	39.184503378970	630.033146565353	842.079531162951	38.546260063733	368.909017533552	915.350084843353	34.990838966679	287.404021664517	998.894706235514	95.592075583643	314.658821488783	1127.892441363062	42.001445911020	284.886952481906	1045.550589994065	1111.803487297654	67.914494503651	1276.283348258536	985.536451134761	72.743781415645	922.365278403138	1108.654733583161	686.121133971335	959.050582752341	849.128538261125	696.016599797113	
108	13.501571428571	806.604351069214	1009.632894273248	420.795217105640	992.843957182890	1438.548918646584	229.339962044674	1089.058907948353	1375.444529517535	396.358636461387	996.349763392784	1448.013208906493	566.000559472356	962.370924506425	1500.657116181731	384.843541165326	1035.049989934623	952.545356163709	541.701187182748	1025.155720370408	967.112580754327	268.342952572609	1117.035715084400	779.132743360099	515.038903008628	1078.869487897302	661.594876330733	597.213612009336	1164.324959387754	618.353286205325	516.814823912287	1189.367991749384	517.042161229681	544.260504580427	1063.370194509937	748.058833814029	298.697081473663	968.745187804437	636.275992901438	237.660086423925	1047.993276245453	555.134203718867	301.143298939699	1043.880833793631	486.628952120509	311.943473288155	1015.816777752080	415.692410892079	303.933991644388	923.684494305721	303.755092464073	252.178497702251	967.844023276234	191.197552553561	325.425865434174	1132.752535796875	432.945595971102	558.985281383490	1030.167195675889	364.491393189543	626.251335178769	1047.075427918245	252.949275971414	583.436062813497	873.660312604708	134.407046317022	566.595781054888	1052.408881162426	129.556990991007	605.220842321693	948.772931742098	98.130524550282	640.601091997278	1146.640167578564	40.980216512094	632.668400652316	836.719308802322	38.488327929808	368.884807609316	909.977324019995	34.937804660691	287.361977546320	993.515908365109	95.570394965380	314.618251187349	1122.534580903105	42.020959527619	284.888808849614	1048.383301479197	1113.349551419656	67.077583156352	1283.466411029222	996.030613509465	71.966532283797	913.703592514042	1110.950432146248	686.464783785373	943.844240079698	850.868536534568	697.902831370248	
109	13.514857142857	805.305565601215	1010.188533855079	420.010291265673	994.301856454534	1438.625380088442	230.063238271264	1088.982991191496	1375.191929542753	397.810814571695	995.156413429988	1448.116069727740	566.669408246808	962.588109059036	1500.716984035917	385.450810448212	1032.873683676126	952.368547320618	542.621489930275	1024.834699800799	967.134850491949	269.064240500112	1113.749810483401	778.328179213720	516.324326861765	1074.622403035039	661.203357991456	598.589091992577	1159.702218825848	617.291874284593	518.334759231839	1185.472795831636	518.318055863882	545.489896044266	1060.655953173647	747.342532101095	299.639773626368	965.223596799192	636.419134613445	237.655984774300	1043.260439948487	554.584573013216	301.471896800556	1038.409980812071	486.340776103099	312.168763065383	1010.503195124957	415.617577801802	303.910870822665	918.375238631961	303.725296772209	252.031542269625	962.445496161970	191.158892643339	325.392145097599	1133.311130422394	433.254248790155	560.483901666528	1035.859287043471	359.118734689162	628.621088183919	1058.852774878396	248.836302605997	585.344260442406	892.934136728217	120.170534765183	569.372718441104	1071.696191713483	126.129255583323	607.102569981733	970.434447464179	88.963564256512	643.276719067799	1171.059340825620	43.723819005856	634.645138825903	831.366697751514	38.427952330085	368.862250193906	904.608594925092	34.885597390747	287.325132807954	988.140338576259	95.550818046066	314.589542502853	1117.177131857122	42.035346490615	284.893359502005	1051.034543598073	1114.612697772625	66.566500126892	1289.894101912963	1005.963177702040	71.481935779628	905.491366016313	1113.212422153374	686.881546872400	929.822933578738	852.804016359379	699.696297328249	
